<?xml version="1.0" encoding="UTF-8" standalone="no"?>
<svg
   xmlns:dc="http://purl.org/dc/elements/1.1/"
   xmlns:cc="http://creativecommons.org/ns#"
   xmlns:rdf="http://www.w3.org/1999/02/22-rdf-syntax-ns#"
   xmlns:svg="http://www.w3.org/2000/svg"
   xmlns="http://www.w3.org/2000/svg"
   width="243.46902mm"
   height="252.36281mm"
   viewBox="0 0 243.46902 252.36281"
   version="1.1"
   id="svg8">
  <defs
     id="defs2" />
  <metadata
     id="metadata5">
    <rdf:RDF>
      <cc:Work
         rdf:about="">
        <dc:format>image/svg+xml</dc:format>
        <dc:type
           rdf:resource="http://purl.org/dc/dcmitype/StillImage" />
        <dc:title></dc:title>
      </cc:Work>
    </rdf:RDF>
  </metadata>
  <g
     transform="translate(7.343369,-55.428219)"
     id="layer1"
     style="display:inline">
    <g
       transform="matrix(0.41101435,0,0,0.41101435,125.06961,105.57197)"
       id="g1036">
      <path
         style="fill:#9fc3d6;fill-opacity:1;stroke:none;stroke-width:0.264583px;stroke-linecap:butt;stroke-linejoin:miter;stroke-opacity:1"
         d="M -51.961523,-110 V 150 L 259.80762,330 V 69.999999 Z"
         id="path1015" />
      <path
         style="fill:#fbbf61;fill-opacity:1;stroke:none;stroke-width:0.264583px;stroke-linecap:butt;stroke-linejoin:miter;stroke-opacity:1"
         d="M -51.961523,150 259.80762,330 0,479.99999 -311.76915,300 Z"
         id="path999" />
      <path
         style="fill:#b3b3b3;fill-opacity:1;stroke:none;stroke-width:0.264583px;stroke-linecap:butt;stroke-linejoin:miter;stroke-opacity:1"
         d="M 0,479.99999 V 492 L 259.80762,341.99999 V 330 Z"
         id="path1001" />
      <path
         style="fill:#cccccc;fill-opacity:1;stroke:none;stroke-width:0.264583px;stroke-linecap:butt;stroke-linejoin:miter;stroke-opacity:1"
         d="m -311.76915,300 v 12 L 0,492 v -12.00001 z"
         id="path1003" />
      <path
         style="fill:#b3b3b3;fill-opacity:1;stroke:none;stroke-width:0.264583px;stroke-linecap:butt;stroke-linejoin:miter;stroke-opacity:1"
         d="M 259.80762,330 V 69.999999 C 263.27172,68 266.73582,66 270.19993,64 v 272.00001 l -10.39231,5.99998 z"
         id="path1005" />
      <path
         style="fill:#f2f2f2;fill-opacity:1;stroke:none;stroke-width:0.264583px;stroke-linecap:butt;stroke-linejoin:miter;stroke-opacity:1"
         d="M 259.80762,69.999999 -51.961524,-110 v -12 L 270.19993,63.999998 Z"
         id="path1009" />
      <path
         style="fill:#f2f2f2;fill-opacity:1;stroke:none;stroke-width:0.264583px;stroke-linecap:butt;stroke-linejoin:miter;stroke-opacity:1"
         d="m -51.961523,-122 -270.199927,156 10.3923,6 259.807627,-150 z"
         id="path1011" />
      <path
         style="fill:#cccccc;fill-opacity:1;stroke:none;stroke-width:0.264583px;stroke-linecap:butt;stroke-linejoin:miter;stroke-opacity:1"
         d="M -322.16145,34 V 305.99999 L -311.76915,312 V 39.999999 Z"
         id="path1013" />
      <path
         style="fill:#77939f;fill-opacity:1;stroke:none;stroke-width:0.264583px;stroke-linecap:butt;stroke-linejoin:miter;stroke-opacity:1"
         d="M -311.76915,39.999999 -51.961523,-110 V 150 L -311.76915,300 Z"
         id="path1025" />
    </g>
    <g
       id="g971"
       transform="matrix(0.28571429,0,0,0.28571429,396.88707,384)">
      <g
         id="g984">
        <path
           style="fill:#ececec;stroke:none;stroke-width:0.264583px;stroke-linecap:butt;stroke-linejoin:miter;stroke-opacity:1"
           d="M 69.282031,59.999998 155.88457,110 l -3.4641,2 -86.602541,-50 z"
           id="path861" />
        <path
           style="fill:#1a1a1a;fill-opacity:1;stroke:#000000;stroke-width:0.264583px;stroke-linecap:butt;stroke-linejoin:miter;stroke-opacity:1"
           d="m 152.42047,112 v 60 L 65.817929,122 v -60 0"
           id="path863" />
        <path
           style="fill:#4899ff;fill-opacity:1;stroke:#000000;stroke-width:0.264583px;stroke-linecap:butt;stroke-linejoin:miter;stroke-opacity:1"
           d="M 69.282031,67.999998 V 120 l 79.674339,46 v -52 z"
           id="path865" />
        <path
           style="fill:#cccccc;stroke:none;stroke-width:0.264583px;stroke-linecap:butt;stroke-linejoin:miter;stroke-opacity:1"
           d="m 155.88457,110 v 60 l -3.4641,2 v -60 z"
           id="path869" />
        <path
           style="fill:#ececec;stroke:none;stroke-width:0.264583px;stroke-linecap:butt;stroke-linejoin:miter;stroke-opacity:1"
           d="m 65.817929,122 -51.961523,30 86.602544,50 51.96152,-30 z"
           id="path871" />
        <path
           style="fill:#dfdfdf;fill-opacity:1;stroke:none;stroke-width:0.264583px;stroke-linecap:butt;stroke-linejoin:miter;stroke-opacity:1"
           d="m 13.856406,152 v 4 l 86.602544,50 v -4 z"
           id="path873" />
        <path
           style="fill:#cccccc;stroke:none;stroke-width:0.264583px;stroke-linecap:butt;stroke-linejoin:miter;stroke-opacity:1"
           d="m 100.45895,206 55.42562,-32 v -4 l -55.42562,32 z"
           id="path875" />
        <path
           style="fill:#d6d6d6;fill-opacity:1;stroke:none;stroke-width:0.264583px;stroke-linecap:butt;stroke-linejoin:miter;stroke-opacity:1"
           d="m 65.817929,126 79.674341,46 -24.24872,14 -79.674331,-46 z"
           id="path879" />
        <path
           style="fill:#d6d6d6;fill-opacity:1;stroke:none;stroke-width:0.264583px;stroke-linecap:butt;stroke-linejoin:miter;stroke-opacity:1"
           d="M 65.817929,158 90.066642,172 72.746134,182 48.497423,168 Z"
           id="path883" />
      </g>
    </g>
    <g
       id="g1000"
       transform="matrix(0.28571429,0,0,0.28571429,461.22038,176.57143)">
      <path
         id="path973"
         d="m -658.17929,0 259.8076,150 V 309.99998 L -658.17929,160 Z"
         style="fill:#1a1a1a;fill-opacity:1;stroke:#000000;stroke-width:0.264583px;stroke-linecap:butt;stroke-linejoin:miter;stroke-opacity:1" />
      <path
         id="path990"
         d="M -654.71521,5.9999998 -401.83577,152 V 304 L -654.71521,158 Z"
         style="fill:#4899ff;fill-opacity:1;stroke:#000000;stroke-width:0.264583px;stroke-linecap:butt;stroke-linejoin:miter;stroke-opacity:1" />
      <path
         id="path992"
         d="m -658.17929,0 3.46408,-2 259.80763,150 -3.46411,2 z"
         style="fill:#4d4d4d;stroke:none;stroke-width:0.264583px;stroke-linecap:butt;stroke-linejoin:miter;stroke-opacity:1" />
      <path
         id="path994"
         d="M -398.37169,309.99998 -394.90758,308 V 148 l -3.46411,2 z"
         style="fill:#333333;stroke:none;stroke-width:0.264583px;stroke-linecap:butt;stroke-linejoin:miter;stroke-opacity:1" />
    </g>
  </g>
</svg>
