<?xml version="1.0" encoding="UTF-8" standalone="no"?>
<svg
   xmlns:dc="http://purl.org/dc/elements/1.1/"
   xmlns:cc="http://creativecommons.org/ns#"
   xmlns:rdf="http://www.w3.org/1999/02/22-rdf-syntax-ns#"
   xmlns:svg="http://www.w3.org/2000/svg"
   xmlns="http://www.w3.org/2000/svg"
   width="47.1586mm"
   height="55.900017mm"
   viewBox="0 0 47.1586 55.900017"
   version="1.1"
   id="svg8">
  <defs
     id="defs2" />
  <metadata
     id="metadata5">
    <rdf:RDF>
      <cc:Work
         rdf:about="">
        <dc:format>image/svg+xml</dc:format>
        <dc:type
           rdf:resource="http://purl.org/dc/dcmitype/StillImage" />
        <dc:title></dc:title>
      </cc:Work>
    </rdf:RDF>
  </metadata>
  <g
     transform="translate(-86.900201,-67.100186)"
     id="layer1"
     style="display:inline">
    <g
       id="g971"
       transform="matrix(0.17903525,0,0,0.17903525,55.914065,45.257886)">
      <g
         id="g984">
        <path
           style="fill:#ececec;stroke:none;stroke-width:0.264583px;stroke-linecap:butt;stroke-linejoin:miter;stroke-opacity:1"
           d="M 69.282031,59.999998 155.88457,110 l -3.4641,2 -86.602541,-50 z"
           id="path861" />
        <path
           style="fill:#1a1a1a;fill-opacity:1;stroke:#000000;stroke-width:0.264583px;stroke-linecap:butt;stroke-linejoin:miter;stroke-opacity:1"
           d="m 152.42047,112 v 60 L 65.817929,122 v -60 0"
           id="path863" />
        <path
           style="fill:#4899ff;fill-opacity:1;stroke:#000000;stroke-width:0.264583px;stroke-linecap:butt;stroke-linejoin:miter;stroke-opacity:1"
           d="M 69.282031,67.999998 V 120 l 79.674339,46 v -52 z"
           id="path865" />
        <path
           style="fill:#cccccc;stroke:none;stroke-width:0.264583px;stroke-linecap:butt;stroke-linejoin:miter;stroke-opacity:1"
           d="m 155.88457,110 v 60 l -3.4641,2 v -60 z"
           id="path869" />
        <path
           style="fill:#ececec;stroke:none;stroke-width:0.264583px;stroke-linecap:butt;stroke-linejoin:miter;stroke-opacity:1"
           d="m 65.817929,122 -51.961523,30 86.602544,50 51.96152,-30 z"
           id="path871" />
        <path
           style="fill:#dfdfdf;fill-opacity:1;stroke:none;stroke-width:0.264583px;stroke-linecap:butt;stroke-linejoin:miter;stroke-opacity:1"
           d="m 13.856406,152 v 4 l 86.602544,50 v -4 z"
           id="path873" />
        <path
           style="fill:#cccccc;stroke:none;stroke-width:0.264583px;stroke-linecap:butt;stroke-linejoin:miter;stroke-opacity:1"
           d="m 100.45895,206 55.42562,-32 v -4 l -55.42562,32 z"
           id="path875" />
        <path
           style="fill:#d6d6d6;fill-opacity:1;stroke:none;stroke-width:0.264583px;stroke-linecap:butt;stroke-linejoin:miter;stroke-opacity:1"
           d="m 65.817929,126 79.674341,46 -24.24872,14 -79.674331,-46 z"
           id="path879" />
        <path
           style="fill:#d6d6d6;fill-opacity:1;stroke:none;stroke-width:0.264583px;stroke-linecap:butt;stroke-linejoin:miter;stroke-opacity:1"
           d="M 65.817929,158 90.066642,172 72.746134,182 48.497423,168 Z"
           id="path883" />
      </g>
    </g>
    <g
       id="g1000"
       transform="matrix(0.17903525,0,0,0.17903525,204.76118,67.458256)">
      <path
         id="path973"
         d="m -658.17929,0 259.8076,150 V 309.99998 L -658.17929,160 Z"
         style="fill:#1a1a1a;fill-opacity:1;stroke:#000000;stroke-width:0.264583px;stroke-linecap:butt;stroke-linejoin:miter;stroke-opacity:1" />
      <path
         id="path990"
         d="M -654.71521,5.9999998 -401.83577,152 V 304 L -654.71521,158 Z"
         style="fill:#4899ff;fill-opacity:1;stroke:#000000;stroke-width:0.264583px;stroke-linecap:butt;stroke-linejoin:miter;stroke-opacity:1" />
      <path
         id="path992"
         d="m -658.17929,0 3.46408,-2 259.80763,150 -3.46411,2 z"
         style="fill:#4d4d4d;stroke:none;stroke-width:0.264583px;stroke-linecap:butt;stroke-linejoin:miter;stroke-opacity:1" />
      <path
         id="path994"
         d="M -398.37169,309.99998 -394.90758,308 V 148 l -3.46411,2 z"
         style="fill:#333333;stroke:none;stroke-width:0.264583px;stroke-linecap:butt;stroke-linejoin:miter;stroke-opacity:1" />
    </g>
  </g>
</svg>
